<?xml version="1.0" encoding="UTF-8" standalone="no"?>
<!DOCTYPE svg PUBLIC "-//W3C//DTD SVG 1.1//EN"
 "http://www.w3.org/Graphics/SVG/1.1/DTD/svg11.dtd">
<!-- Generated by graphviz version 2.40.1 (20161225.0304)
 -->
<!-- Title: G Pages: 1 -->
<svg width="188pt" height="176pt"
 viewBox="0.00 0.00 187.66 175.70" xmlns="http://www.w3.org/2000/svg" xmlns:xlink="http://www.w3.org/1999/xlink">
<g id="graph0" class="graph" transform="scale(1 1) rotate(0) translate(4 171.7004)">
<title>G</title>
<polygon fill="#ffffff" stroke="transparent" points="-4,4 -4,-171.7004 183.6579,-171.7004 183.6579,4 -4,4"/>
<!-- 0 -->
<g id="node1" class="node">
<title>0</title>
<ellipse fill="none" stroke="#000000" cx="75.8293" cy="-89.712" rx="28.6953" ry="18"/>
<text text-anchor="middle" x="75.8293" y="-86.012" font-family="Times,serif" font-size="14.00" fill="#000000">0 | A</text>
</g>
<!-- 1 -->
<g id="node2" class="node">
<title>1</title>
<ellipse fill="none" stroke="#000000" cx="151.7104" cy="-101.4894" rx="27.8951" ry="18"/>
<text text-anchor="middle" x="151.7104" y="-97.7894" font-family="Times,serif" font-size="14.00" fill="#000000">0 | R</text>
</g>
<!-- 0&#45;&#45;1 -->
<g id="edge1" class="edge">
<title>0&#45;&#45;1</title>
<path fill="none" stroke="#000000" d="M103.6537,-94.0306C110.4214,-95.081 117.6523,-96.2033 124.396,-97.2499"/>
<text text-anchor="middle" x="114.0249" y="-84.4403" font-family="Times,serif" font-size="14.00" fill="#000000">&#45; | &#45;</text>
</g>
<!-- 2 -->
<g id="node3" class="node">
<title>2</title>
<ellipse fill="none" stroke="#000000" cx="48.4527" cy="-18" rx="27.8951" ry="18"/>
<text text-anchor="middle" x="48.4527" y="-14.3" font-family="Times,serif" font-size="14.00" fill="#000000">0 | R</text>
</g>
<!-- 0&#45;&#45;2 -->
<g id="edge2" class="edge">
<title>0&#45;&#45;2</title>
<path fill="none" stroke="#000000" d="M69.062,-71.9854C64.8185,-60.8697 59.3708,-46.5995 55.1421,-35.5226"/>
<text text-anchor="middle" x="52.1021" y="-57.554" font-family="Times,serif" font-size="14.00" fill="#000000">&#45; | &#45;</text>
</g>
<!-- 3 -->
<g id="node4" class="node">
<title>3</title>
<ellipse fill="none" stroke="#000000" cx="27.9475" cy="-149.7004" rx="27.8951" ry="18"/>
<text text-anchor="middle" x="27.9475" y="-146.0004" font-family="Times,serif" font-size="14.00" fill="#000000">0 | R</text>
</g>
<!-- 0&#45;&#45;3 -->
<g id="edge3" class="edge">
<title>0&#45;&#45;3</title>
<path fill="none" stroke="#000000" d="M62.7454,-106.1041C55.9892,-114.5685 47.7695,-124.8665 41.0156,-133.3281"/>
<text text-anchor="middle" x="41.8805" y="-108.5161" font-family="Times,serif" font-size="14.00" fill="#000000">&#45; | &#45;</text>
</g>
</g>
</svg>
