<?xml version="1.0" encoding="UTF-8" standalone="no"?>
<!DOCTYPE svg PUBLIC "-//W3C//DTD SVG 1.1//EN"
 "http://www.w3.org/Graphics/SVG/1.1/DTD/svg11.dtd">
<!-- Generated by graphviz version 2.40.1 (20161225.0304)
 -->
<!-- Title: G Pages: 1 -->
<svg width="140pt" height="106pt"
 viewBox="0.00 0.00 140.00 106.41" xmlns="http://www.w3.org/2000/svg" xmlns:xlink="http://www.w3.org/1999/xlink">
<g id="graph0" class="graph" transform="scale(1 1) rotate(0) translate(4 102.4077)">
<title>G</title>
<polygon fill="#ffffff" stroke="transparent" points="-4,4 -4,-102.4077 136.0011,-102.4077 136.0011,4 -4,4"/>
<!-- 0 -->
<g id="node1" class="node">
<title>0</title>
<ellipse fill="none" stroke="#000000" cx="30.5473" cy="-79.9339" rx="30.5947" ry="18"/>
<text text-anchor="middle" x="30.5473" y="-76.2339" font-family="Times,serif" font-size="14.00" fill="#000000">A | A</text>
</g>
<!-- 1 -->
<g id="node2" class="node">
<title>1</title>
<ellipse fill="none" stroke="#000000" cx="102.7537" cy="-80.4077" rx="29.4969" ry="18"/>
<text text-anchor="middle" x="102.7537" y="-76.7077" font-family="Times,serif" font-size="14.00" fill="#000000">R | R</text>
</g>
<!-- 0&#45;&#45;1 -->
<g id="edge1" class="edge">
<title>0&#45;&#45;1</title>
<path fill="none" stroke="#000000" d="M61.1693,-80.1348C65.1668,-80.161 69.256,-80.1879 73.2348,-80.214"/>
<text text-anchor="middle" x="67.2021" y="-68.9744" font-family="Times,serif" font-size="14.00" fill="#000000">&#45; | &#45;</text>
</g>
<!-- 2 -->
<g id="node3" class="node">
<title>2</title>
<ellipse fill="none" stroke="#000000" cx="67.1394" cy="-18" rx="27" ry="18"/>
<text text-anchor="middle" x="67.1394" y="-14.3" font-family="Times,serif" font-size="14.00" fill="#000000">0 | 0</text>
</g>
<!-- 0&#45;&#45;2 -->
<g id="edge2" class="edge">
<title>0&#45;&#45;2</title>
<path fill="none" stroke="#000000" stroke-dasharray="1,5" d="M40.7402,-62.6818C45.8155,-54.0916 51.9333,-43.737 57.0011,-35.1595"/>
<text text-anchor="middle" x="46.3707" y="-52.7207" font-family="Times,serif" font-size="14.00" fill="#000000">&#45;</text>
</g>
<!-- 1&#45;&#45;2 -->
<g id="edge3" class="edge">
<title>1&#45;&#45;2</title>
<path fill="none" stroke="#000000" stroke-dasharray="5,2" d="M93.0219,-63.3545C87.9967,-54.5487 81.8829,-43.8354 76.8594,-35.0325"/>
<text text-anchor="middle" x="82.4407" y="-52.9935" font-family="Times,serif" font-size="14.00" fill="#000000">&#45;</text>
</g>
</g>
</svg>
