<?xml version="1.0" encoding="UTF-8" standalone="no"?>
<!DOCTYPE svg PUBLIC "-//W3C//DTD SVG 1.1//EN"
 "http://www.w3.org/Graphics/SVG/1.1/DTD/svg11.dtd">
<!-- Generated by graphviz version 2.40.1 (20161225.0304)
 -->
<!-- Title: G Pages: 1 -->
<svg width="211pt" height="205pt"
 viewBox="0.00 0.00 211.09 204.58" xmlns="http://www.w3.org/2000/svg" xmlns:xlink="http://www.w3.org/1999/xlink">
<g id="graph0" class="graph" transform="scale(1 1) rotate(0) translate(4 200.5781)">
<title>G</title>
<polygon fill="#ffffff" stroke="transparent" points="-4,4 -4,-200.5781 207.0937,-200.5781 207.0937,4 -4,4"/>
<!-- 0 -->
<g id="node1" class="node">
<title>0</title>
<ellipse fill="none" stroke="#000000" cx="29.2474" cy="-62.4161" rx="29.4969" ry="18"/>
<text text-anchor="middle" x="29.2474" y="-58.7161" font-family="Times,serif" font-size="14.00" fill="#000000">C | C</text>
</g>
<!-- 1 -->
<g id="node2" class="node">
<title>1</title>
<ellipse fill="none" stroke="#000000" cx="96.1398" cy="-18" rx="29.4969" ry="18"/>
<text text-anchor="middle" x="96.1398" y="-14.3" font-family="Times,serif" font-size="14.00" fill="#000000">C | C</text>
</g>
<!-- 0&#45;&#45;1 -->
<g id="edge1" class="edge">
<title>0&#45;&#45;1</title>
<path fill="none" stroke="#000000" d="M49.3173,-49.0898C57.7837,-43.4682 67.6192,-36.9375 76.084,-31.3169"/>
<text text-anchor="middle" x="50.7007" y="-29.0033" font-family="Times,serif" font-size="14.00" fill="#000000">&#45; | =</text>
</g>
<!-- 5 -->
<g id="node6" class="node">
<title>5</title>
<ellipse fill="none" stroke="#000000" cx="33.9442" cy="-142.5779" rx="29.4969" ry="18"/>
<text text-anchor="middle" x="33.9442" y="-138.8779" font-family="Times,serif" font-size="14.00" fill="#000000">C | C</text>
</g>
<!-- 0&#45;&#45;5 -->
<g id="edge2" class="edge">
<title>0&#45;&#45;5</title>
<path fill="none" stroke="#000000" stroke-dasharray="5,2" d="M30.3132,-80.6061C31.0819,-93.725 32.115,-111.3575 32.8827,-124.46"/>
<text text-anchor="middle" x="29.0979" y="-106.333" font-family="Times,serif" font-size="14.00" fill="#000000">&#45;</text>
</g>
<!-- 2 -->
<g id="node3" class="node">
<title>2</title>
<ellipse fill="none" stroke="#000000" cx="167.9371" cy="-53.918" rx="30.5947" ry="18"/>
<text text-anchor="middle" x="167.9371" y="-50.218" font-family="Times,serif" font-size="14.00" fill="#000000">O | O</text>
</g>
<!-- 1&#45;&#45;2 -->
<g id="edge3" class="edge">
<title>1&#45;&#45;2</title>
<path fill="none" stroke="#000000" d="M118.8569,-29.3647C127.0734,-33.4751 136.3599,-38.1208 144.6266,-42.2564"/>
<text text-anchor="middle" x="143.7417" y="-24.6105" font-family="Times,serif" font-size="14.00" fill="#000000">= | &#45;</text>
</g>
<!-- 3 -->
<g id="node4" class="node">
<title>3</title>
<ellipse fill="none" stroke="#000000" cx="172.5464" cy="-134.0846" rx="30.5947" ry="18"/>
<text text-anchor="middle" x="172.5464" y="-130.3846" font-family="Times,serif" font-size="14.00" fill="#000000">H | H</text>
</g>
<!-- 2&#45;&#45;3 -->
<g id="edge4" class="edge">
<title>2&#45;&#45;3</title>
<path fill="none" stroke="#000000" stroke-dasharray="1,5" d="M168.983,-72.109C169.7374,-85.2288 170.7512,-102.8623 171.5046,-115.9655"/>
<text text-anchor="middle" x="167.7438" y="-97.8373" font-family="Times,serif" font-size="14.00" fill="#000000">&#45;</text>
</g>
<!-- 4 -->
<g id="node5" class="node">
<title>4</title>
<ellipse fill="none" stroke="#000000" cx="105.7029" cy="-178.5781" rx="30.5947" ry="18"/>
<text text-anchor="middle" x="105.7029" y="-174.8781" font-family="Times,serif" font-size="14.00" fill="#000000">O | O</text>
</g>
<!-- 3&#45;&#45;4 -->
<g id="edge5" class="edge">
<title>3&#45;&#45;4</title>
<path fill="none" stroke="#000000" stroke-dasharray="5,2" d="M152.128,-147.6759C143.835,-153.196 134.2766,-159.5585 125.9964,-165.0701"/>
<text text-anchor="middle" x="136.5622" y="-145.173" font-family="Times,serif" font-size="14.00" fill="#000000">&#45;</text>
</g>
<!-- 4&#45;&#45;5 -->
<g id="edge6" class="edge">
<title>4&#45;&#45;5</title>
<path fill="none" stroke="#000000" d="M82.2065,-166.7903C74.0315,-162.6891 64.879,-158.0974 56.7601,-154.0243"/>
<text text-anchor="middle" x="57.4833" y="-164.2073" font-family="Times,serif" font-size="14.00" fill="#000000">&#45; | =</text>
</g>
</g>
</svg>
